<?xml version="1.0" encoding="utf-8"?>
<!-- Generator: Adobe Illustrator 27.2.0, SVG Export Plug-In . SVG Version: 6.00 Build 0)  -->
<svg version="1.1" xmlns="http://www.w3.org/2000/svg" xmlns:xlink="http://www.w3.org/1999/xlink" x="0px" y="0px"
	 viewBox="0 0 3000 3000" style="enable-background:new 0 0 3000 3000;" xml:space="preserve">
<style type="text/css">
	.st0{fill:#D6C4B8;}
</style>
<g id="Layer_1">
	<path class="st0" d="M1624.34,260.57c98.3,1191.73,177.99,1271.42,1369.72,1369.71c-1191.73,98.3-1271.42,177.99-1369.71,1369.72
		c-98.3-1191.73-177.99-1271.42-1369.72-1369.71C1446.36,1531.99,1526.04,1452.3,1624.34,260.57z"/>
	<path class="st0" d="M687.97-5.97c49.37,598.57,89.4,638.6,687.97,687.97c-598.57,49.37-638.6,89.4-687.97,687.97
		C638.6,771.4,598.57,731.38,0,682C598.57,632.63,638.6,592.61,687.97-5.97z"/>
	<path class="st0" d="M2423.11,1986.37c32.92,399.05,59.6,425.73,458.65,458.65c-399.05,32.92-425.73,59.6-458.65,458.65
		c-32.91-399.05-59.6-425.73-458.65-458.65C2363.51,2412.1,2390.19,2385.42,2423.11,1986.37z"/>
</g>
<g id="Layer_2">
</g>
</svg>
